<mxfile host="app.diagrams.net" modified="2021-06-15T06:18:30.026Z" agent="5.0 (Windows NT 10.0; Win64; x64) AppleWebKit/537.36 (KHTML, like Gecko) Chrome/91.0.4472.106 Safari/537.36" etag="q8rtp46rEugwsVeDX-OW" version="14.7.8" type="github">
  <diagram id="C5RBs43oDa-KdzZeNtuy" name="Page-1">
    <mxGraphModel dx="1038" dy="547" grid="1" gridSize="10" guides="0" tooltips="1" connect="1" arrows="1" fold="1" page="1" pageScale="1" pageWidth="1169" pageHeight="1654" math="0" shadow="0">
      <root>
        <mxCell id="WIyWlLk6GJQsqaUBKTNV-0" />
        <mxCell id="WIyWlLk6GJQsqaUBKTNV-1" parent="WIyWlLk6GJQsqaUBKTNV-0" />
        <mxCell id="kKIcKryCLngTGCtvh4_6-8" value="" style="rounded=1;whiteSpace=wrap;html=1;fillColor=none;dashed=1;" parent="WIyWlLk6GJQsqaUBKTNV-1" vertex="1">
          <mxGeometry x="374" y="440" width="380" height="60" as="geometry" />
        </mxCell>
        <mxCell id="kKIcKryCLngTGCtvh4_6-38" value="" style="rounded=1;whiteSpace=wrap;html=1;fillColor=none;dashed=1;" parent="WIyWlLk6GJQsqaUBKTNV-1" vertex="1">
          <mxGeometry x="94" y="870" width="510" height="80" as="geometry" />
        </mxCell>
        <mxCell id="kKIcKryCLngTGCtvh4_6-5" value="" style="rounded=1;whiteSpace=wrap;html=1;fillColor=none;dashed=1;" parent="WIyWlLk6GJQsqaUBKTNV-1" vertex="1">
          <mxGeometry x="114" y="570" width="650" height="90" as="geometry" />
        </mxCell>
        <mxCell id="WIyWlLk6GJQsqaUBKTNV-2" value="" style="rounded=0;html=1;jettySize=auto;orthogonalLoop=1;fontSize=11;endArrow=block;endFill=0;endSize=8;strokeWidth=1;shadow=0;labelBackgroundColor=none;edgeStyle=orthogonalEdgeStyle;" parent="WIyWlLk6GJQsqaUBKTNV-1" source="WIyWlLk6GJQsqaUBKTNV-3" target="WIyWlLk6GJQsqaUBKTNV-6" edge="1">
          <mxGeometry relative="1" as="geometry">
            <Array as="points">
              <mxPoint x="214" y="70" />
              <mxPoint x="214" y="70" />
            </Array>
          </mxGeometry>
        </mxCell>
        <mxCell id="WIyWlLk6GJQsqaUBKTNV-3" value="发起制卡" style="rounded=1;whiteSpace=wrap;html=1;fontSize=12;glass=0;strokeWidth=1;shadow=0;" parent="WIyWlLk6GJQsqaUBKTNV-1" vertex="1">
          <mxGeometry x="157" y="20" width="120" height="40" as="geometry" />
        </mxCell>
        <mxCell id="WIyWlLk6GJQsqaUBKTNV-4" value="Yes" style="rounded=0;html=1;jettySize=auto;orthogonalLoop=1;fontSize=11;endArrow=block;endFill=0;endSize=8;strokeWidth=1;shadow=0;labelBackgroundColor=none;edgeStyle=orthogonalEdgeStyle;" parent="WIyWlLk6GJQsqaUBKTNV-1" source="WIyWlLk6GJQsqaUBKTNV-6" target="WIyWlLk6GJQsqaUBKTNV-10" edge="1">
          <mxGeometry y="20" relative="1" as="geometry">
            <mxPoint as="offset" />
          </mxGeometry>
        </mxCell>
        <mxCell id="WIyWlLk6GJQsqaUBKTNV-6" value="检查库存&lt;br&gt;是否足够" style="rhombus;whiteSpace=wrap;html=1;shadow=0;fontFamily=Helvetica;fontSize=12;align=center;strokeWidth=1;spacing=6;spacingTop=-4;" parent="WIyWlLk6GJQsqaUBKTNV-1" vertex="1">
          <mxGeometry x="164" y="120" width="100" height="70" as="geometry" />
        </mxCell>
        <mxCell id="WIyWlLk6GJQsqaUBKTNV-7" value="当前库存不存,请先添加库存" style="rounded=1;whiteSpace=wrap;html=1;fontSize=12;glass=0;strokeWidth=1;shadow=0;" parent="WIyWlLk6GJQsqaUBKTNV-1" vertex="1">
          <mxGeometry x="374" y="135" width="120" height="40" as="geometry" />
        </mxCell>
        <mxCell id="WIyWlLk6GJQsqaUBKTNV-8" value="Yes" style="rounded=0;html=1;jettySize=auto;orthogonalLoop=1;fontSize=11;endArrow=block;endFill=0;endSize=8;strokeWidth=1;shadow=0;labelBackgroundColor=none;edgeStyle=orthogonalEdgeStyle;" parent="WIyWlLk6GJQsqaUBKTNV-1" source="WIyWlLk6GJQsqaUBKTNV-10" edge="1">
          <mxGeometry x="0.25" y="20" relative="1" as="geometry">
            <mxPoint as="offset" />
            <mxPoint x="214" y="430" as="targetPoint" />
          </mxGeometry>
        </mxCell>
        <mxCell id="WIyWlLk6GJQsqaUBKTNV-9" value="" style="edgeStyle=orthogonalEdgeStyle;rounded=0;html=1;jettySize=auto;orthogonalLoop=1;fontSize=11;endArrow=block;endFill=0;endSize=8;strokeWidth=1;shadow=0;labelBackgroundColor=none;" parent="WIyWlLk6GJQsqaUBKTNV-1" source="WIyWlLk6GJQsqaUBKTNV-10" target="WIyWlLk6GJQsqaUBKTNV-12" edge="1">
          <mxGeometry x="0.2727" y="30" relative="1" as="geometry">
            <mxPoint as="offset" />
          </mxGeometry>
        </mxCell>
        <mxCell id="WIyWlLk6GJQsqaUBKTNV-10" value="获取制卡数据" style="rhombus;whiteSpace=wrap;html=1;shadow=0;fontFamily=Helvetica;fontSize=12;align=center;strokeWidth=1;spacing=6;spacingTop=-4;" parent="WIyWlLk6GJQsqaUBKTNV-1" vertex="1">
          <mxGeometry x="164" y="270" width="100" height="80" as="geometry" />
        </mxCell>
        <mxCell id="WIyWlLk6GJQsqaUBKTNV-12" value="获取制卡数据失败" style="rounded=1;whiteSpace=wrap;html=1;fontSize=12;glass=0;strokeWidth=1;shadow=0;" parent="WIyWlLk6GJQsqaUBKTNV-1" vertex="1">
          <mxGeometry x="374" y="290" width="120" height="40" as="geometry" />
        </mxCell>
        <mxCell id="Ysg9XGIrSXdzxJQqvf4c-2" value="调用控件制卡" style="rhombus;whiteSpace=wrap;html=1;" parent="WIyWlLk6GJQsqaUBKTNV-1" vertex="1">
          <mxGeometry x="169" y="430" width="90" height="80" as="geometry" />
        </mxCell>
        <mxCell id="Ysg9XGIrSXdzxJQqvf4c-3" value="" style="endArrow=classic;html=1;" parent="WIyWlLk6GJQsqaUBKTNV-1" edge="1">
          <mxGeometry width="50" height="50" relative="1" as="geometry">
            <mxPoint x="258" y="470" as="sourcePoint" />
            <mxPoint x="388" y="470" as="targetPoint" />
          </mxGeometry>
        </mxCell>
        <mxCell id="Ysg9XGIrSXdzxJQqvf4c-5" value="制卡失败" style="text;html=1;align=center;verticalAlign=middle;resizable=0;points=[];autosize=1;strokeColor=none;" parent="WIyWlLk6GJQsqaUBKTNV-1" vertex="1">
          <mxGeometry x="274" y="450" width="60" height="20" as="geometry" />
        </mxCell>
        <mxCell id="Ysg9XGIrSXdzxJQqvf4c-8" value="No" style="text;html=1;align=center;verticalAlign=middle;resizable=0;points=[];autosize=1;strokeColor=none;" parent="WIyWlLk6GJQsqaUBKTNV-1" vertex="1">
          <mxGeometry x="309" y="290" width="30" height="20" as="geometry" />
        </mxCell>
        <mxCell id="Ysg9XGIrSXdzxJQqvf4c-11" value="" style="edgeStyle=orthogonalEdgeStyle;rounded=0;html=1;jettySize=auto;orthogonalLoop=1;fontSize=11;endArrow=block;endFill=0;endSize=8;strokeWidth=1;shadow=0;labelBackgroundColor=none;" parent="WIyWlLk6GJQsqaUBKTNV-1" edge="1">
          <mxGeometry x="0.2727" y="30" relative="1" as="geometry">
            <mxPoint as="offset" />
            <mxPoint x="264" y="154.66" as="sourcePoint" />
            <mxPoint x="374" y="154.66" as="targetPoint" />
          </mxGeometry>
        </mxCell>
        <mxCell id="Ysg9XGIrSXdzxJQqvf4c-12" value="No" style="text;html=1;align=center;verticalAlign=middle;resizable=0;points=[];autosize=1;strokeColor=none;" parent="WIyWlLk6GJQsqaUBKTNV-1" vertex="1">
          <mxGeometry x="299" y="130" width="30" height="20" as="geometry" />
        </mxCell>
        <mxCell id="Ysg9XGIrSXdzxJQqvf4c-13" value="提交制卡失败结果submitPrnOk(-1)" style="rounded=1;whiteSpace=wrap;html=1;fontSize=12;glass=0;strokeWidth=1;shadow=0;" parent="WIyWlLk6GJQsqaUBKTNV-1" vertex="1">
          <mxGeometry x="389" y="450" width="120" height="40" as="geometry" />
        </mxCell>
        <mxCell id="Ysg9XGIrSXdzxJQqvf4c-15" value="仅记录制卡结果" style="rounded=1;whiteSpace=wrap;html=1;fontSize=12;glass=0;strokeWidth=1;shadow=0;" parent="WIyWlLk6GJQsqaUBKTNV-1" vertex="1">
          <mxGeometry x="610" y="450" width="120" height="40" as="geometry" />
        </mxCell>
        <mxCell id="Ysg9XGIrSXdzxJQqvf4c-17" value="" style="endArrow=classic;html=1;" parent="WIyWlLk6GJQsqaUBKTNV-1" edge="1">
          <mxGeometry width="50" height="50" relative="1" as="geometry">
            <mxPoint x="509" y="470" as="sourcePoint" />
            <mxPoint x="609" y="470" as="targetPoint" />
          </mxGeometry>
        </mxCell>
        <mxCell id="Ysg9XGIrSXdzxJQqvf4c-19" value="&lt;span style=&quot;font-size: 12px&quot;&gt;制卡成功，打印完成&lt;/span&gt;" style="rounded=0;html=1;jettySize=auto;orthogonalLoop=1;fontSize=11;endArrow=block;endFill=0;endSize=8;strokeWidth=1;shadow=0;labelBackgroundColor=none;edgeStyle=orthogonalEdgeStyle;" parent="WIyWlLk6GJQsqaUBKTNV-1" edge="1">
          <mxGeometry x="0.25" y="70" relative="1" as="geometry">
            <mxPoint as="offset" />
            <mxPoint x="213.58" y="510" as="sourcePoint" />
            <mxPoint x="213.58" y="569" as="targetPoint" />
          </mxGeometry>
        </mxCell>
        <mxCell id="Ysg9XGIrSXdzxJQqvf4c-24" value="提交制卡打印完成结果submitPrnOk(1)" style="rounded=1;whiteSpace=wrap;html=1;fontSize=12;glass=0;strokeWidth=1;shadow=0;" parent="WIyWlLk6GJQsqaUBKTNV-1" vertex="1">
          <mxGeometry x="140" y="590" width="137" height="60" as="geometry" />
        </mxCell>
        <mxCell id="Ysg9XGIrSXdzxJQqvf4c-25" value="推送打印结果给中科软" style="rounded=1;whiteSpace=wrap;html=1;fontSize=12;glass=0;strokeWidth=1;shadow=0;" parent="WIyWlLk6GJQsqaUBKTNV-1" vertex="1">
          <mxGeometry x="385" y="600" width="140" height="40" as="geometry" />
        </mxCell>
        <mxCell id="kKIcKryCLngTGCtvh4_6-1" value="&lt;span&gt;更新制卡状态为&quot;已打印&quot;&lt;br&gt;并记录制卡结果&lt;/span&gt;" style="rounded=1;whiteSpace=wrap;html=1;fontSize=12;glass=0;strokeWidth=1;shadow=0;" parent="WIyWlLk6GJQsqaUBKTNV-1" vertex="1">
          <mxGeometry x="594" y="600" width="146" height="40" as="geometry" />
        </mxCell>
        <mxCell id="kKIcKryCLngTGCtvh4_6-2" value="" style="endArrow=classic;html=1;" parent="WIyWlLk6GJQsqaUBKTNV-1" edge="1">
          <mxGeometry width="50" height="50" relative="1" as="geometry">
            <mxPoint x="275" y="619.5" as="sourcePoint" />
            <mxPoint x="385" y="620" as="targetPoint" />
          </mxGeometry>
        </mxCell>
        <mxCell id="kKIcKryCLngTGCtvh4_6-3" value="" style="endArrow=classic;html=1;entryX=0;entryY=0.5;entryDx=0;entryDy=0;" parent="WIyWlLk6GJQsqaUBKTNV-1" target="kKIcKryCLngTGCtvh4_6-1" edge="1">
          <mxGeometry width="50" height="50" relative="1" as="geometry">
            <mxPoint x="525" y="619.5" as="sourcePoint" />
            <mxPoint x="584" y="620" as="targetPoint" />
          </mxGeometry>
        </mxCell>
        <mxCell id="kKIcKryCLngTGCtvh4_6-14" value="制卡成功,核验通过" style="rounded=0;html=1;jettySize=auto;orthogonalLoop=1;fontSize=11;endArrow=block;endFill=0;endSize=8;strokeWidth=1;shadow=0;labelBackgroundColor=none;edgeStyle=orthogonalEdgeStyle;" parent="WIyWlLk6GJQsqaUBKTNV-1" edge="1">
          <mxGeometry x="0.25" y="70" relative="1" as="geometry">
            <mxPoint as="offset" />
            <mxPoint x="214" y="711" as="targetPoint" />
            <mxPoint x="214" y="655" as="sourcePoint" />
          </mxGeometry>
        </mxCell>
        <mxCell id="kKIcKryCLngTGCtvh4_6-19" value="" style="rounded=1;whiteSpace=wrap;html=1;fillColor=none;dashed=1;" parent="WIyWlLk6GJQsqaUBKTNV-1" vertex="1">
          <mxGeometry x="104" y="710" width="650" height="90" as="geometry" />
        </mxCell>
        <mxCell id="kKIcKryCLngTGCtvh4_6-24" value="提交制卡核验通过结果submitChkOk(2)" style="rounded=1;whiteSpace=wrap;html=1;fontSize=12;glass=0;strokeWidth=1;shadow=0;" parent="WIyWlLk6GJQsqaUBKTNV-1" vertex="1">
          <mxGeometry x="144" y="730" width="137" height="60" as="geometry" />
        </mxCell>
        <mxCell id="kKIcKryCLngTGCtvh4_6-27" value="推送查验结果给中科软" style="rounded=1;whiteSpace=wrap;html=1;fontSize=12;glass=0;strokeWidth=1;shadow=0;" parent="WIyWlLk6GJQsqaUBKTNV-1" vertex="1">
          <mxGeometry x="395" y="740" width="140" height="40" as="geometry" />
        </mxCell>
        <mxCell id="kKIcKryCLngTGCtvh4_6-29" value="更新制卡状态为&quot;已核验&quot;&lt;br&gt;并记录制卡结果" style="rounded=1;whiteSpace=wrap;html=1;fontSize=12;glass=0;strokeWidth=1;shadow=0;" parent="WIyWlLk6GJQsqaUBKTNV-1" vertex="1">
          <mxGeometry x="601" y="740" width="140" height="40" as="geometry" />
        </mxCell>
        <mxCell id="kKIcKryCLngTGCtvh4_6-30" value="" style="endArrow=classic;html=1;" parent="WIyWlLk6GJQsqaUBKTNV-1" edge="1">
          <mxGeometry width="50" height="50" relative="1" as="geometry">
            <mxPoint x="284" y="760" as="sourcePoint" />
            <mxPoint x="394" y="760.5" as="targetPoint" />
          </mxGeometry>
        </mxCell>
        <mxCell id="kKIcKryCLngTGCtvh4_6-32" value="" style="endArrow=classic;html=1;entryX=0;entryY=0.5;entryDx=0;entryDy=0;" parent="WIyWlLk6GJQsqaUBKTNV-1" edge="1">
          <mxGeometry width="50" height="50" relative="1" as="geometry">
            <mxPoint x="534" y="760" as="sourcePoint" />
            <mxPoint x="603" y="760.5" as="targetPoint" />
          </mxGeometry>
        </mxCell>
        <mxCell id="kKIcKryCLngTGCtvh4_6-33" value="Yes" style="rounded=0;html=1;jettySize=auto;orthogonalLoop=1;fontSize=11;endArrow=block;endFill=0;endSize=8;strokeWidth=1;shadow=0;labelBackgroundColor=none;edgeStyle=orthogonalEdgeStyle;" parent="WIyWlLk6GJQsqaUBKTNV-1" edge="1">
          <mxGeometry x="0.25" y="20" relative="1" as="geometry">
            <mxPoint as="offset" />
            <mxPoint x="204" y="880" as="targetPoint" />
            <mxPoint x="204" y="800" as="sourcePoint" />
          </mxGeometry>
        </mxCell>
        <mxCell id="kKIcKryCLngTGCtvh4_6-35" value="核验批量制卡结果" style="rounded=1;whiteSpace=wrap;html=1;fontSize=12;glass=0;strokeWidth=1;shadow=0;" parent="WIyWlLk6GJQsqaUBKTNV-1" vertex="1">
          <mxGeometry x="124" y="880" width="137" height="60" as="geometry" />
        </mxCell>
        <mxCell id="kKIcKryCLngTGCtvh4_6-36" value="填写制卡成功数量、卡片作废数量" style="rounded=1;whiteSpace=wrap;html=1;fontSize=12;glass=0;strokeWidth=1;shadow=0;" parent="WIyWlLk6GJQsqaUBKTNV-1" vertex="1">
          <mxGeometry x="376" y="886" width="210" height="50" as="geometry" />
        </mxCell>
        <mxCell id="kKIcKryCLngTGCtvh4_6-37" value="" style="endArrow=classic;html=1;" parent="WIyWlLk6GJQsqaUBKTNV-1" edge="1">
          <mxGeometry width="50" height="50" relative="1" as="geometry">
            <mxPoint x="264" y="910" as="sourcePoint" />
            <mxPoint x="374" y="910.5" as="targetPoint" />
          </mxGeometry>
        </mxCell>
        <mxCell id="kKIcKryCLngTGCtvh4_6-39" value="校验填写数量是否合法" style="rounded=1;whiteSpace=wrap;html=1;fontSize=12;glass=0;strokeWidth=1;shadow=0;" parent="WIyWlLk6GJQsqaUBKTNV-1" vertex="1">
          <mxGeometry x="134" y="990" width="137" height="60" as="geometry" />
        </mxCell>
        <mxCell id="kKIcKryCLngTGCtvh4_6-40" value="确认" style="rounded=0;html=1;jettySize=auto;orthogonalLoop=1;fontSize=11;endArrow=block;endFill=0;endSize=8;strokeWidth=1;shadow=0;labelBackgroundColor=none;edgeStyle=orthogonalEdgeStyle;" parent="WIyWlLk6GJQsqaUBKTNV-1" edge="1">
          <mxGeometry x="0.25" y="20" relative="1" as="geometry">
            <mxPoint as="offset" />
            <mxPoint x="194" y="990" as="targetPoint" />
            <mxPoint x="194" y="950" as="sourcePoint" />
          </mxGeometry>
        </mxCell>
        <mxCell id="kKIcKryCLngTGCtvh4_6-43" value="成功数量&lt;br&gt;和作废数量&lt;br&gt;都为0" style="rhombus;whiteSpace=wrap;html=1;" parent="WIyWlLk6GJQsqaUBKTNV-1" vertex="1">
          <mxGeometry x="150" y="1100" width="100" height="90" as="geometry" />
        </mxCell>
        <mxCell id="kKIcKryCLngTGCtvh4_6-44" value="直接提示核验完成" style="rounded=1;whiteSpace=wrap;html=1;fontSize=12;glass=0;strokeWidth=1;shadow=0;" parent="WIyWlLk6GJQsqaUBKTNV-1" vertex="1">
          <mxGeometry x="320" y="1120" width="210" height="50" as="geometry" />
        </mxCell>
        <mxCell id="kKIcKryCLngTGCtvh4_6-45" value="No" style="rounded=0;html=1;jettySize=auto;orthogonalLoop=1;fontSize=11;endArrow=block;endFill=0;endSize=8;strokeWidth=1;shadow=0;labelBackgroundColor=none;edgeStyle=orthogonalEdgeStyle;" parent="WIyWlLk6GJQsqaUBKTNV-1" edge="1">
          <mxGeometry x="0.25" y="20" relative="1" as="geometry">
            <mxPoint as="offset" />
            <mxPoint x="200" y="1270" as="targetPoint" />
            <mxPoint x="200" y="1190" as="sourcePoint" />
          </mxGeometry>
        </mxCell>
        <mxCell id="kKIcKryCLngTGCtvh4_6-46" value="成功数量 &amp;gt; 0" style="rhombus;whiteSpace=wrap;html=1;" parent="WIyWlLk6GJQsqaUBKTNV-1" vertex="1">
          <mxGeometry x="150" y="1270" width="100" height="90" as="geometry" />
        </mxCell>
        <mxCell id="kKIcKryCLngTGCtvh4_6-47" value="修改库存(制卡成功，成功数量)" style="rounded=1;whiteSpace=wrap;html=1;fontSize=12;glass=0;strokeWidth=1;shadow=0;" parent="WIyWlLk6GJQsqaUBKTNV-1" vertex="1">
          <mxGeometry x="324" y="1290" width="210" height="50" as="geometry" />
        </mxCell>
        <mxCell id="kKIcKryCLngTGCtvh4_6-49" value="作废数量 &amp;gt; 0" style="rhombus;whiteSpace=wrap;html=1;" parent="WIyWlLk6GJQsqaUBKTNV-1" vertex="1">
          <mxGeometry x="150" y="1440" width="100" height="90" as="geometry" />
        </mxCell>
        <mxCell id="kKIcKryCLngTGCtvh4_6-50" value="修改库存(卡片作废，作废数量)" style="rounded=1;whiteSpace=wrap;html=1;fontSize=12;glass=0;strokeWidth=1;shadow=0;" parent="WIyWlLk6GJQsqaUBKTNV-1" vertex="1">
          <mxGeometry x="330" y="1460" width="210" height="50" as="geometry" />
        </mxCell>
        <mxCell id="kKIcKryCLngTGCtvh4_6-51" value="No" style="rounded=0;html=1;jettySize=auto;orthogonalLoop=1;fontSize=11;endArrow=block;endFill=0;endSize=8;strokeWidth=1;shadow=0;labelBackgroundColor=none;edgeStyle=orthogonalEdgeStyle;" parent="WIyWlLk6GJQsqaUBKTNV-1" edge="1">
          <mxGeometry x="0.25" y="20" relative="1" as="geometry">
            <mxPoint as="offset" />
            <mxPoint x="200" y="1440" as="targetPoint" />
            <mxPoint x="200" y="1360" as="sourcePoint" />
          </mxGeometry>
        </mxCell>
        <mxCell id="kKIcKryCLngTGCtvh4_6-52" value="Yes" style="rounded=0;html=1;jettySize=auto;orthogonalLoop=1;fontSize=11;endArrow=block;endFill=0;endSize=8;strokeWidth=1;shadow=0;labelBackgroundColor=none;edgeStyle=orthogonalEdgeStyle;" parent="WIyWlLk6GJQsqaUBKTNV-1" edge="1">
          <mxGeometry x="0.25" y="20" relative="1" as="geometry">
            <mxPoint as="offset" />
            <mxPoint x="200" y="1103" as="targetPoint" />
            <mxPoint x="200" y="1050" as="sourcePoint" />
          </mxGeometry>
        </mxCell>
        <mxCell id="kKIcKryCLngTGCtvh4_6-53" value="" style="endArrow=classic;html=1;" parent="WIyWlLk6GJQsqaUBKTNV-1" edge="1">
          <mxGeometry width="50" height="50" relative="1" as="geometry">
            <mxPoint x="251" y="1314" as="sourcePoint" />
            <mxPoint x="324" y="1314.5" as="targetPoint" />
          </mxGeometry>
        </mxCell>
        <mxCell id="kKIcKryCLngTGCtvh4_6-56" value="Yes" style="text;html=1;align=center;verticalAlign=middle;resizable=0;points=[];autosize=1;" parent="WIyWlLk6GJQsqaUBKTNV-1" vertex="1">
          <mxGeometry x="265" y="1290" width="30" height="20" as="geometry" />
        </mxCell>
        <mxCell id="kKIcKryCLngTGCtvh4_6-57" value="" style="endArrow=classic;html=1;" parent="WIyWlLk6GJQsqaUBKTNV-1" edge="1">
          <mxGeometry width="50" height="50" relative="1" as="geometry">
            <mxPoint x="250" y="1142" as="sourcePoint" />
            <mxPoint x="323" y="1142.5" as="targetPoint" />
          </mxGeometry>
        </mxCell>
        <mxCell id="kKIcKryCLngTGCtvh4_6-58" value="Yes" style="text;html=1;align=center;verticalAlign=middle;resizable=0;points=[];autosize=1;" parent="WIyWlLk6GJQsqaUBKTNV-1" vertex="1">
          <mxGeometry x="265" y="1120" width="30" height="20" as="geometry" />
        </mxCell>
        <mxCell id="kKIcKryCLngTGCtvh4_6-59" value="" style="endArrow=classic;html=1;" parent="WIyWlLk6GJQsqaUBKTNV-1" edge="1">
          <mxGeometry width="50" height="50" relative="1" as="geometry">
            <mxPoint x="251" y="1484" as="sourcePoint" />
            <mxPoint x="324" y="1484.5" as="targetPoint" />
          </mxGeometry>
        </mxCell>
        <mxCell id="kKIcKryCLngTGCtvh4_6-60" value="Yes" style="text;html=1;align=center;verticalAlign=middle;resizable=0;points=[];autosize=1;" parent="WIyWlLk6GJQsqaUBKTNV-1" vertex="1">
          <mxGeometry x="265" y="1460" width="30" height="20" as="geometry" />
        </mxCell>
      </root>
    </mxGraphModel>
  </diagram>
</mxfile>
